<?xml version="1.0" encoding="utf-8"?>
<!-- Generator: Adobe Illustrator 22.0.1, SVG Export Plug-In . SVG Version: 6.00 Build 0)  -->
<svg version="1.1" id="Ebene_1" xmlns="http://www.w3.org/2000/svg" xmlns:xlink="http://www.w3.org/1999/xlink" x="0px" y="0px"
	 viewBox="0 0 1929.4 329.8" style="enable-background:new 0 0 1929.4 329.8;" xml:space="preserve">
<style type="text/css">
	.st0{fill:#262253;}
	.st1{fill:#373277;}
	.st2{opacity:0.8;}
	.st3{fill:none;stroke:url(#Path-59_1_);stroke-width:0.3;stroke-linecap:round;}
	.st4{fill:#0F0C2B;}
	.st5{fill:#1F1B46;}
	.st6{fill:#191737;}
	.st7{fill:#2D2862;}
	.st8{fill:#322E6D;}
	.st9{fill:#23234F;}
	.st10{fill:#444289;}
	.st11{opacity:0.3;fill:#0A0A16;enable-background:new    ;}
	.st12{fill:#7F7CA8;}
	.st13{fill:#504F84;}
	.st14{fill:#C8C6D8;}
	.st15{fill:#0A0A16;}
	.st16{fill:#B6B4CD;}
	.st17{fill:#918FB4;}
	.st18{fill:#6D699C;}
</style>
<path class="st0" d="M1929.4,215.6V330H0V124c26.7-2.3,126.7-6.2,149.1-5.6c97.3,2.7,156.9,13.7,259.6,27.1
	c169.9,22,311.5,25.8,502.5-31.5c164.3-49.3,84.5-57.7,131.3-80.2c3.2-1.6,11.5-4.5,11.5-4.5l1.2-0.4h0.1c6.6,0,13.3,0.7,20.3,2.2
	c37.4,7.6,61.4,26.7,109.6,45c0.1,0,0.3,0.1,0.4,0.2h0.1c0.8,0.3,1.7,0.6,2.5,0.9c5.5,2,11.3,4.1,17.5,6.1c7.8,2.5,16.1,5,25.1,7.4
	h0.1c0.3,0.1,0.6,0.2,0.9,0.2c65.9,17.4,168.1,30.5,346.5,26.4c29.2-0.7,55.4,0.9,78.9,4.3c0.8,0.1,1.6,0.2,2.4,0.3
	c103.3,15.2,222.8,63,264.9,90.4c0.1,0,0.1,0.1,0.2,0.1C1926.5,213.5,1928,214.6,1929.4,215.6z"/>
<path class="st1" d="M959.5,140.6c-191.1,57.4-380.9,44.7-550.8,22.6c-102.7-13.4-167.9-39.5-265.1-42.1
	c-22.2-0.6-115.8,0.6-143.6,3V124c55.9-10.7,178.4-15.3,228.3-15.3c70.2,0,136.7,7.7,203.5,14.9c93.8,10.2,188.2,19.5,294.2,5.6
	c30-3.9,56.7-8.9,80.8-14.5c136.9-32.1,185.8-84.8,246.8-85.8c0,0,1.8,0,2,0c0.1,0,0,0.2-1,0.4c-1.1,0.3-9,3.1-11.9,4.9
	C1002,59.6,1123.5,91.3,959.5,140.6z"/>
<path id="Path-7" class="st1" d="M1401.4,157.1c-109.6-24.3-265.1-40.8-288.5-17.3c-23.2,23.5,130.7,43.3-21.4,56.4
	c-152.2,13,11.6,61.4,155.9,67.6s228.5-0.4,273.9-31.8S1511.1,181.5,1401.4,157.1z"/>
<g id="footsteps" transform="translate(2044.000000, 7.000000)" class="st2">
	
		<linearGradient id="Path-59_1_" gradientUnits="userSpaceOnUse" x1="-15963.9072" y1="274.745" x2="-15963.4941" y2="274.745" gradientTransform="matrix(46.214 0 0 8.7597 736775.5 -2379.0688)">
		<stop  offset="0" style="stop-color:#262253"/>
		<stop  offset="1" style="stop-color:#0F0C2B"/>
	</linearGradient>
	<path id="Path-59" class="st3" d="M-979.1,29.6c3.5-2.8,8.7-3.7,10.3-3.9c1.6-0.1,4-0.2,9.1,0.5"/>
	
		<ellipse id="Oval" transform="matrix(3.406308e-02 -0.9994 0.9994 3.406308e-02 -1021.9584 -665.196)" class="st4" cx="-855.1" cy="196.1" rx="0.7" ry="1.3"/>
	
		<ellipse id="Oval-Copy-5" transform="matrix(2.016001e-02 -0.9998 0.9998 2.016001e-02 -1034.0325 -668.203)" class="st4" cx="-857.9" cy="193.4" rx="0.7" ry="1.3"/>
	
		<ellipse id="Oval-Copy-6" transform="matrix(0.1108 -0.9938 0.9938 0.1108 -960.212 -684.3545)" class="st4" cx="-862.6" cy="194.5" rx="0.7" ry="1.3"/>
	
		<ellipse id="Oval-Copy-7" transform="matrix(0.2329 -0.9725 0.9725 0.2329 -850.2641 -693.9752)" class="st4" cx="-865" cy="192" rx="0.7" ry="1.3"/>
	
		<ellipse id="Oval-Copy-8" transform="matrix(0.3746 -0.9272 0.9272 0.3746 -722.4572 -685.9449)" class="st4" cx="-869.7" cy="192.6" rx="0.7" ry="1.3"/>
	
		<ellipse id="Oval-Copy-9" transform="matrix(0.3034 -0.9529 0.9529 0.3034 -789.0325 -699.2643)" class="st4" cx="-872.8" cy="190" rx="0.7" ry="1.3"/>
	
		<ellipse id="Oval-Copy-10" transform="matrix(0.3034 -0.9529 0.9529 0.3034 -792.3971 -704.0383)" class="st4" cx="-877.7" cy="189.9" rx="0.7" ry="1.3"/>
	
		<ellipse id="Oval-Copy-11" transform="matrix(0.3034 -0.9529 0.9529 0.3034 -791.8864 -708.7786)" class="st4" cx="-880.7" cy="187.2" rx="0.7" ry="1.3"/>
	
		<ellipse id="Oval-Copy-12" transform="matrix(0.2485 -0.9686 0.9686 0.2485 -846.0582 -715.9095)" class="st4" cx="-884.4" cy="187.3" rx="0.7" ry="1.3"/>
	
		<ellipse id="Oval-Copy-13" transform="matrix(0.2485 -0.9686 0.9686 0.2485 -846.6431 -722.0935)" class="st4" cx="-888.7" cy="184.6" rx="0.7" ry="1.3"/>
	
		<ellipse id="Oval-Copy-14" transform="matrix(0.2485 -0.9686 0.9686 0.2485 -850.3727 -727.0052)" class="st4" cx="-893.7" cy="184.5" rx="0.7" ry="1.3"/>
	
		<ellipse id="Oval-Copy-15" transform="matrix(0.2485 -0.9686 0.9686 0.2485 -850.3613 -731.5108)" class="st4" cx="-896.6" cy="182.3" rx="0.7" ry="1.3"/>
	
		<ellipse id="Oval-Copy-16" transform="matrix(0.2485 -0.9686 0.9686 0.2485 -853.6434 -734.8635)" class="st4" cx="-900.4" cy="182.7" rx="0.7" ry="1.3"/>
	
		<ellipse id="Oval-Copy-17" transform="matrix(0.2485 -0.9686 0.9686 0.2485 -854.8615 -741.6118)" class="st4" cx="-905.4" cy="180.1" rx="0.7" ry="1.3"/>
	
		<ellipse id="Oval-Copy-18" transform="matrix(0.2485 -0.9686 0.9686 0.2485 -859.4301 -746.4178)" class="st4" cx="-910.8" cy="180.7" rx="0.7" ry="1.3"/>
	
		<ellipse id="Oval-Copy-19" transform="matrix(0.2485 -0.9686 0.9686 0.2485 -859.6484 -751.5422)" class="st4" cx="-914.2" cy="178.2" rx="0.7" ry="1.3"/>
	
		<ellipse id="Oval-Copy-20" transform="matrix(0.2111 -0.9775 0.9775 0.2111 -901.2319 -759.0934)" class="st4" cx="-920.9" cy="178.8" rx="0.7" ry="1.3"/>
	
		<ellipse id="Oval-Copy-21" transform="matrix(0.2111 -0.9775 0.9775 0.2111 -901.8986 -765.4015)" class="st4" cx="-925.1" cy="176" rx="0.7" ry="1.3"/>
	
		<ellipse id="Oval-Copy-22" transform="matrix(0.2111 -0.9775 0.9775 0.2111 -906.0817 -769.2571)" class="st4" cx="-929.6" cy="176.7" rx="0.7" ry="1.3"/>
	
		<ellipse id="Oval-Copy-23" transform="matrix(0.2111 -0.9775 0.9775 0.2111 -908.8372 -776.8276)" class="st4" cx="-935.7" cy="174.6" rx="0.7" ry="1.3"/>
	
		<ellipse id="Oval-Copy-24" transform="matrix(0.2111 -0.9775 0.9775 0.2111 -911.5388 -779.3184)" class="st4" cx="-938.6" cy="175" rx="0.7" ry="1.3"/>
	
		<ellipse id="Oval-Copy-25" transform="matrix(0.1543 -0.988 0.988 0.1543 -968.6036 -785.7938)" class="st4" cx="-943.3" cy="172.9" rx="0.7" ry="1.3"/>
	
		<ellipse id="Oval-Copy-26" transform="matrix(0.1543 -0.988 0.988 0.1543 -973.2044 -789.4341)" class="st4" cx="-947.7" cy="173.8" rx="0.7" ry="1.3"/>
	
		<ellipse id="Oval-Copy-27" transform="matrix(9.676840e-02 -0.9953 0.9953 9.676840e-02 -1030.578 -791.5124)" class="st4" cx="-951.4" cy="172.1" rx="0.7" ry="1.3"/>
	
		<ellipse id="Oval-Copy-28" transform="matrix(9.676840e-02 -0.9953 0.9953 9.676840e-02 -1036.9325 -795.7894)" class="st4" cx="-956.9" cy="173.4" rx="0.7" ry="1.3"/>
	
		<ellipse id="Oval-Copy-29" transform="matrix(0.1922 -0.9814 0.9814 0.1922 -944.2509 -804.4069)" class="st4" cx="-960.7" cy="171.4" rx="0.7" ry="1.3"/>
	
		<ellipse id="Oval-Copy-30" transform="matrix(0.1922 -0.9814 0.9814 0.1922 -948.9013 -808.7448)" class="st4" cx="-965.7" cy="172" rx="0.7" ry="1.3"/>
	
		<ellipse id="Oval-Copy-31" transform="matrix(0.2669 -0.9637 0.9637 0.2669 -874.4295 -810.5275)" class="st4" cx="-970" cy="169.5" rx="0.7" ry="1.3"/>
	
		<ellipse id="Oval-Copy-32" transform="matrix(0.2669 -0.9637 0.9637 0.2669 -878.734 -815.42)" class="st4" cx="-975.3" cy="169.9" rx="0.7" ry="1.3"/>
	
		<ellipse id="Oval-Copy-33" transform="matrix(0.2669 -0.9637 0.9637 0.2669 -878.5892 -819.8939)" class="st4" cx="-978.2" cy="167.5" rx="0.7" ry="1.3"/>
	
		<ellipse id="Oval-Copy-34" transform="matrix(0.3572 -0.934 0.934 0.3572 -789.1288 -811.9861)" class="st4" cx="-984.5" cy="167.3" rx="0.7" ry="1.3"/>
	
		<ellipse id="Oval-Copy-35" transform="matrix(0.4262 -0.9046 0.9046 0.4262 -715.7854 -799.1247)" class="st4" cx="-987.8" cy="164.7" rx="0.7" ry="1.3"/>
	
		<ellipse id="Oval-Copy-36" transform="matrix(0.4262 -0.9046 0.9046 0.4262 -718.2631 -802.7762)" class="st4" cx="-992" cy="164.8" rx="0.7" ry="1.3"/>
	
		<ellipse id="Oval-Copy-37" transform="matrix(0.5081 -0.8613 0.8613 0.5081 -628.9051 -776.793)" class="st4" cx="-994.5" cy="162.2" rx="0.7" ry="1.3"/>
	
		<ellipse id="Oval-Copy-38" transform="matrix(0.5081 -0.8613 0.8613 0.5081 -630.537 -782.0441)" class="st4" cx="-999.9" cy="161" rx="0.7" ry="1.3"/>
	
		<ellipse id="Oval-Copy-39" transform="matrix(0.6132 -0.79 0.79 0.6132 -512.9739 -729.6559)" class="st4" cx="-1001.5" cy="158.9" rx="0.7" ry="1.3"/>
	
		<ellipse id="Oval-Copy-40" transform="matrix(0.6546 -0.756 0.756 0.6546 -466.2613 -706.2917)" class="st4" cx="-1006" cy="157.1" rx="0.7" ry="1.3"/>
	
		<ellipse id="Oval-Copy-41" transform="matrix(0.7184 -0.6956 0.6956 0.7184 -390.2619 -658.0884)" class="st4" cx="-1008" cy="153" rx="0.6" ry="1.3"/>
	
		<ellipse id="Oval-Copy-42" transform="matrix(0.8265 -0.563 0.563 0.8265 -260.3976 -543.9942)" class="st4" cx="-1012.6" cy="150.4" rx="0.6" ry="1.3"/>
	
		<ellipse id="Oval-Copy-43" transform="matrix(0.8706 -0.492 0.492 0.8706 -203.2292 -479.6842)" class="st4" cx="-1013.5" cy="146.5" rx="0.6" ry="1.3"/>
	
		<ellipse id="Oval-Copy-44" transform="matrix(0.9392 -0.3434 0.3434 0.9392 -111.2166 -340.2468)" class="st4" cx="-1016.3" cy="143.9" rx="0.6" ry="1.3"/>
	
		<ellipse id="Oval-Copy-45" transform="matrix(0.9939 -0.1106 0.1106 0.9939 -21.6844 -111.5236)" class="st4" cx="-1016.1" cy="139.7" rx="0.6" ry="1.3"/>
	
		<ellipse id="Oval-Copy-46" transform="matrix(0.1106 -0.9939 0.9939 0.1106 -1040.3464 -890.4025)" class="st4" cx="-1017.7" cy="136.1" rx="1.3" ry="0.6"/>
	
		<ellipse id="Oval-Copy-47" transform="matrix(0.2976 -0.9547 0.9547 0.2976 -840.2985 -875.6695)" class="st4" cx="-1015.2" cy="133.2" rx="1.3" ry="0.6"/>
	
		<ellipse id="Oval-Copy-48" transform="matrix(0.5349 -0.8449 0.8449 0.5349 -579.7299 -797.4554)" class="st4" cx="-1014.2" cy="127.9" rx="1.3" ry="0.6"/>
	
		<ellipse id="Oval-Copy-49" transform="matrix(0.683 -0.7304 0.7304 0.683 -412.4942 -698.5003)" class="st4" cx="-1011" cy="126" rx="1.3" ry="0.6"/>
	
		<ellipse id="Oval-Copy-50" transform="matrix(0.7675 -0.641 0.641 0.7675 -312.7814 -618.2557)" class="st4" cx="-1008.8" cy="122.1" rx="1.3" ry="0.7"/>
	
		<ellipse id="Oval-Copy-51" transform="matrix(0.8518 -0.5238 0.5238 0.8518 -211.9052 -508.1465)" class="st4" cx="-1004.2" cy="120.5" rx="1.3" ry="0.7"/>
	
		<ellipse id="Oval-Copy-52" transform="matrix(0.8518 -0.5238 0.5238 0.8518 -210.127 -507.2796)" class="st4" cx="-1001.7" cy="117.8" rx="1.3" ry="0.7"/>
	
		<ellipse id="Oval-Copy-53" transform="matrix(0.8322 -0.5545 0.5545 0.8322 -232.2154 -533.4964)" class="st4" cx="-997.5" cy="116.9" rx="1.3" ry="0.7"/>
	
		<ellipse id="Oval-Copy-54" transform="matrix(0.8322 -0.5545 0.5545 0.8322 -229.8784 -533.1744)" class="st4" cx="-995.8" cy="113.2" rx="1.3" ry="0.7"/>
	
		<ellipse id="Oval-Copy-55" transform="matrix(0.7675 -0.641 0.641 0.7675 -302.72 -609.7188)" class="st4" cx="-992" cy="112.5" rx="1.3" ry="0.7"/>
	
		<ellipse id="Oval-Copy-56" transform="matrix(0.7675 -0.641 0.641 0.7675 -300.091 -609.3043)" class="st4" cx="-990.1" cy="109.1" rx="1.3" ry="0.7"/>
	
		<ellipse id="Oval-Copy-57" transform="matrix(0.7081 -0.7062 0.7062 0.7081 -363.8156 -665.2329)" class="st4" cx="-986.4" cy="107.4" rx="1.3" ry="0.6"/>
	
		<ellipse id="Oval-Copy-58" transform="matrix(0.7081 -0.7062 0.7062 0.7081 -361.038 -665.2303)" class="st4" cx="-985.1" cy="104" rx="1.3" ry="0.6"/>
	
		<ellipse id="Oval-Copy-59" transform="matrix(0.6311 -0.7757 0.7757 0.6311 -441.1609 -723.8506)" class="st4" cx="-981.6" cy="101.9" rx="1.3" ry="0.6"/>
	
		<ellipse id="Oval-Copy-60" transform="matrix(0.4821 -0.8761 0.8761 0.4821 -593.4357 -808.4886)" class="st4" cx="-980.6" cy="97.7" rx="1.1" ry="0.6"/>
	
		<ellipse id="Oval-Copy-61" transform="matrix(0.3971 -0.9178 0.9178 0.3971 -677.9202 -839.2328)" class="st4" cx="-977.7" cy="96.4" rx="0.9" ry="0.6"/>
	
		<ellipse id="Oval-Copy-62" transform="matrix(0.3971 -0.9178 0.9178 0.3971 -674.8162 -841.5574)" class="st4" cx="-977.9" cy="92.8" rx="0.9" ry="0.6"/>
	
		<ellipse id="Oval-Copy-63" transform="matrix(0.2565 -0.9665 0.9665 0.2565 -811.8727 -875.7877)" class="st4" cx="-975.2" cy="89.8" rx="0.9" ry="0.6"/>
	
		<ellipse id="Oval-Copy-64" transform="matrix(0.1714 -0.9852 0.9852 0.1714 -894.0136 -889.1943)" class="st4" cx="-975.6" cy="86.9" rx="0.9" ry="0.6"/>
	
		<ellipse id="Oval-Copy-65" transform="matrix(7.150158e-02 -0.9974 0.9974 7.150158e-02 -989.2186 -892.8993)" class="st4" cx="-974.2" cy="84.9" rx="0.9" ry="0.6"/>
	
		<ellipse id="Oval-Copy-66" transform="matrix(0.9991 -4.289386e-02 4.289386e-02 0.9991 -4.415 -41.7598)" class="st4" cx="-975.3" cy="82" rx="0.6" ry="0.9"/>
	
		<ellipse id="Oval-Copy-67" transform="matrix(0.9991 -4.289386e-02 4.289386e-02 0.9991 -4.3107 -41.7019)" class="st4" cx="-973.9" cy="79.6" rx="0.6" ry="0.9"/>
	
		<ellipse id="Oval-Copy-68" transform="matrix(0.9991 -4.289386e-02 4.289386e-02 0.9991 -4.1876 -41.7646)" class="st4" cx="-975.3" cy="76.7" rx="0.6" ry="0.9"/>
	
		<ellipse id="Oval-Copy-69" transform="matrix(0.9665 -0.2565 0.2565 0.9665 -51.4825 -247.4968)" class="st4" cx="-974.5" cy="73.6" rx="0.6" ry="0.9"/>
	
		<ellipse id="Oval-Copy-70" transform="matrix(0.9117 -0.4109 0.4109 0.9117 -115.3752 -394.982)" class="st4" cx="-976.5" cy="70.9" rx="0.6" ry="0.9"/>
	
		<ellipse id="Oval-Copy-71" transform="matrix(0.9117 -0.4109 0.4109 0.9117 -114.1102 -395.2969)" class="st4" cx="-976.6" cy="67.8" rx="0.6" ry="0.9"/>
	
		<ellipse id="Oval-Copy-72" transform="matrix(0.9117 -0.4109 0.4109 0.9117 -113.5472 -396.2776)" class="st4" cx="-978.6" cy="66" rx="0.6" ry="0.9"/>
	
		<ellipse id="Oval-Copy-73" transform="matrix(0.9117 -0.4109 0.4109 0.9117 -112.2734 -396.5514)" class="st4" cx="-978.6" cy="62.9" rx="0.6" ry="0.9"/>
	
		<ellipse id="Oval-Copy-74" transform="matrix(0.8697 -0.4935 0.4935 0.8697 -158.1611 -476.2111)" class="st4" cx="-981.2" cy="61.5" rx="0.6" ry="0.9"/>
	
		<ellipse id="Oval-Copy-75" transform="matrix(0.9117 -0.4109 0.4109 0.9117 -110.8948 -398.1375)" class="st4" cx="-981.6" cy="58.9" rx="0.6" ry="0.9"/>
	
		<ellipse id="Oval-Copy-76" transform="matrix(0.9117 -0.4109 0.4109 0.9117 -110.3406 -399.1593)" class="st4" cx="-983.7" cy="57.1" rx="0.6" ry="0.9"/>
	
		<ellipse id="Oval-Copy-77" transform="matrix(0.9627 -0.2707 0.2707 0.9627 -51.2088 -264.2902)" class="st4" cx="-983.7" cy="53.5" rx="0.6" ry="0.9"/>
	
		<ellipse id="Oval-Copy-78" transform="matrix(0.9547 -0.2976 0.2976 0.9547 -59.8981 -291.0245)" class="st4" cx="-985.7" cy="51.2" rx="0.4" ry="0.9"/>
	
		<ellipse id="Oval-Copy-79" transform="matrix(0.9928 -0.1202 0.1202 0.9928 -13.0495 -118.125)" class="st4" cx="-985.7" cy="49.1" rx="0.4" ry="0.7"/>
	
		<ellipse id="Oval-Copy-80" transform="matrix(0.9972 -7.511669e-02 7.511669e-02 0.9972 -6.3093 -73.9495)" class="st4" cx="-986.2" cy="46.9" rx="0.4" ry="0.7"/>
	
		<ellipse id="Oval-Copy-81" transform="matrix(4.509059e-02 -0.999 0.999 4.509059e-02 -986.1493 -941.4863)" class="st4" cx="-985.5" cy="45.1" rx="0.7" ry="0.4"/>
	
		<ellipse id="Oval-Copy-82" transform="matrix(0.1202 -0.9928 0.9928 0.1202 -911.3483 -940.6082)" class="st4" cx="-986.4" cy="43.9" rx="0.7" ry="0.4"/>
	
		<ellipse id="Oval-Copy-83" transform="matrix(0.328 -0.9447 0.9447 0.328 -702.0628 -902.3)" class="st4" cx="-985.2" cy="42.3" rx="0.7" ry="0.4"/>
	
		<ellipse id="Oval-Copy-84" transform="matrix(0.328 -0.9447 0.9447 0.328 -700.7192 -903.8848)" class="st4" cx="-985.7" cy="40.6" rx="0.7" ry="0.4"/>
	<ellipse id="Oval-Copy-85" class="st4" cx="-984.7" cy="38.7" rx="0.4" ry="0.4"/>
	<ellipse id="Oval-Copy-86" class="st4" cx="-985.1" cy="37.3" rx="0.4" ry="0.4"/>
	<ellipse id="Oval-Copy-87" class="st4" cx="-984.3" cy="36.5" rx="0.4" ry="0.4"/>
	<ellipse id="Oval-Copy-88" class="st4" cx="-984.3" cy="35.1" rx="0.4" ry="0.4"/>
	<ellipse id="Oval-Copy-89" class="st4" cx="-983.4" cy="34.7" rx="0.4" ry="0.4"/>
	<ellipse id="Oval-Copy-90" class="st4" cx="-983" cy="33.3" rx="0.4" ry="0.4"/>
	<ellipse id="Oval-Copy-91" class="st4" cx="-981.7" cy="32.9" rx="0.4" ry="0.4"/>
	<ellipse id="Oval-Copy-92" class="st4" cx="-981.3" cy="31.6" rx="0.4" ry="0.4"/>
	<ellipse id="Oval-Copy-93" class="st4" cx="-980.5" cy="31.1" rx="0.4" ry="0.4"/>
	<ellipse id="Oval-Copy-94" class="st4" cx="-980" cy="29.8" rx="0.4" ry="0.4"/>
	<ellipse id="Oval-Copy-95" class="st4" cx="-978.7" cy="29.3" rx="0.4" ry="0.4"/>
	<ellipse id="Oval-Copy-96" class="st4" cx="-978.3" cy="28.4" rx="0.4" ry="0.4"/>
	<ellipse id="Oval-Copy-97" class="st4" cx="-977.2" cy="28.4" rx="0.4" ry="0.4"/>
	<ellipse id="Oval-Copy-98" class="st4" cx="-977.2" cy="28.4" rx="0.4" ry="0.4"/>
	<ellipse id="Oval-Copy-99" class="st4" cx="-976.8" cy="27.9" rx="0.4" ry="0.4"/>
	<ellipse id="Oval-Copy-100" class="st4" cx="-976.1" cy="27.7" rx="0.4" ry="0.4"/>
	<ellipse id="Oval-Copy-101" class="st4" cx="-975.6" cy="27.3" rx="0.4" ry="0.4"/>
	<ellipse id="Oval-Copy-102" class="st4" cx="-974.8" cy="27.3" rx="0.4" ry="0.4"/>
	<ellipse id="Oval-Copy-103" class="st4" cx="-974.4" cy="26.8" rx="0.4" ry="0.4"/>
	<ellipse id="Oval-Copy-104" class="st4" cx="-973.5" cy="26.8" rx="0.4" ry="0.4"/>
	<ellipse id="Oval-Copy-105" class="st4" cx="-973.1" cy="26.3" rx="0.4" ry="0.4"/>
	<ellipse id="Oval-Copy-106" class="st4" cx="-972.3" cy="26.3" rx="0.4" ry="0.4"/>
	
		<ellipse id="Oval_1_" transform="matrix(3.406308e-02 -0.9994 0.9994 3.406308e-02 -1016.0751 -661.9421)" class="st4" cx="-850.5" cy="194.7" rx="0.7" ry="1.3"/>
	
		<ellipse id="Oval_2_" transform="matrix(3.406308e-02 -0.9994 0.9994 3.406308e-02 -1014.9556 -655.5338)" class="st4" cx="-846.6" cy="197.3" rx="0.7" ry="1.3"/>
	
		<ellipse id="Oval_3_" transform="matrix(2.310216e-03 -1 1 2.310216e-03 -1036.4606 -647.5874)" class="st4" cx="-842.8" cy="195.6" rx="0.7" ry="1.3"/>
	
		<ellipse id="Oval_4_" transform="matrix(2.310216e-03 -1 1 2.310216e-03 -1034.7205 -640.7599)" class="st4" cx="-838.5" cy="198.2" rx="0.7" ry="1.3"/>
	
		<ellipse id="Oval_5_" transform="matrix(2.310216e-03 -1 1 2.310216e-03 -1027.8569 -637.7139)" class="st4" cx="-833.5" cy="196.3" rx="0.7" ry="1.3"/>
	
		<ellipse id="Oval_6_" transform="matrix(2.310216e-03 -1 1 2.310216e-03 -1027.3214 -632.9271)" class="st4" cx="-830.9" cy="198.4" rx="0.7" ry="1.3"/>
	
		<ellipse id="Oval_7_" transform="matrix(2.310216e-03 -1 1 2.310216e-03 -1020.6234 -630.7136)" class="st4" cx="-826.4" cy="196.1" rx="0.7" ry="1.3"/>
	
		<ellipse id="Oval_8_" transform="matrix(0.9959 -9.020697e-02 9.020697e-02 0.9959 -21.1944 -73.4286)" class="st4" cx="-822.9" cy="197.8" rx="1.3" ry="0.7"/>
	
		<ellipse id="Oval_9_" transform="matrix(0.9629 -0.2698 0.2698 0.9629 -83.1136 -213.7765)" class="st4" cx="-819.4" cy="195.5" rx="1.3" ry="0.7"/>
	
		<ellipse id="Oval_10_" transform="matrix(0.999 -4.486128e-02 4.486128e-02 0.999 -9.6665 -36.3794)" class="st4" cx="-815.4" cy="197.2" rx="1.3" ry="0.7"/>
	
		<ellipse id="Oval_11_" transform="matrix(0.9842 -0.1771 0.1771 0.9842 -47.2765 -140.7774)" class="st4" cx="-812.4" cy="194.5" rx="1.3" ry="0.7"/>
	
		<ellipse id="Oval_12_" transform="matrix(5.066361e-03 -1 1 5.066361e-03 -999.9582 -612.7668)" class="st4" cx="-807.9" cy="196.1" rx="0.7" ry="1.3"/>
	
		<ellipse id="Oval_13_" transform="matrix(7.213686e-02 -0.9974 0.9974 7.213686e-02 -940.3466 -622.0433)" class="st4" cx="-804.5" cy="194.4" rx="0.7" ry="1.3"/>
</g>
<path class="st1" d="M1924.8,333.8c-27.6-122.1-164.7-113.5-253.5-153.6c-49.8-22.5-41.2-61.8-9.7-58.3
	c107.1,15.7,230.8,68.1,263.2,90.6V333.8L1924.8,333.8z"/>
<path class="st5" d="M608.9,248.4c-6.8,6.7,8.9,25.2,46.8,25.2s68.6-4.2,43.5-17.1c-25.1-12.8-31.9-14.6-48.2-16.9
	C634.7,237.3,608.9,248.4,608.9,248.4z"/>
<path class="st5" d="M573.8,253c-5.8,4.1,3.5,19.7,31.4,24.4c27.8,4.6,50.9,5.5,33.9-7.2c-17-12.6-21.7-14.6-33.4-18.4
	C594.1,248.2,573.8,253,573.8,253z"/>
<g>
	<path class="st6" d="M667.5,243.6c-11.9,8.1-24.4,11.1-35.9,11.6c-22.3,1-40.3-7.7-40.3-7.7c16.5-9.4,14.6-22.2,14.6-22.2l30.2-0.8
		l18-0.5C656.9,238.3,667.5,243.6,667.5,243.6z"/>
	<path class="st7" d="M654.1,224c0.1,1.9-5.6,3.7-13.7,4.7c-1.5,0.1-2.9,0.3-4.5,0.4c-1.8,0.1-3.8,0.2-5.7,0.3
		c-2.7,0.1-5.4,0.1-7.8-0.1c-9.5-0.4-16.4-1.9-16.4-4c-0.1-2.6,10.7-5,24-5.4c2.2-0.1,4.3-0.1,6.4,0c3.4,0.1,6.5,0.3,9.1,0.7
		C650.6,221.2,654.1,222.5,654.1,224z"/>
</g>
<path class="st5" d="M141.8,208.3c-4.5,3.7,4.8,15.5,29,17c24.1,1.5,43.9,0.1,28.3-8.5c-15.6-8.7-19.8-10-30.2-12
	C158.6,202.7,141.8,208.3,141.8,208.3z"/>
<g>
	<path class="st6" d="M581.2,242.8c0,0,1,6.2-7.9,10.6c0,0,22.5,12.1,40.7-1c0,0-5.5-2.7-7.1-9.6H581.2z"/>
	
		<ellipse transform="matrix(1 -1.273806e-03 1.273806e-03 1 -0.3088 0.757)" class="st7" cx="594.1" cy="242.8" rx="12.9" ry="2.3"/>
</g>
<path class="st5" d="M1111.2,57.9c-0.8,2.5-0.3,6.6,10.1,13c11,6.8,22.3,7.1,15.5,1.2c-8.5-7.3-16.8-11.5-19.5-12.8
	C1114.5,57.9,1111.2,57.9,1111.2,57.9z"/>
<g>
	<path class="st6" d="M150.6,199.1c0,0,0.3,6.3-8.9,9.5c0,0,20.7,12.8,40.6,4.2c0,0-5.3-3.4-6-10.5L150.6,199.1z"/>
	
		<ellipse transform="matrix(0.1249 -0.9922 0.9922 0.1249 -55.9591 337.7285)" class="st7" cx="163.5" cy="200.6" rx="2.3" ry="12.9"/>
</g>
<g>
	<path class="st6" d="M1122.7,61.2c0,0-1.4,2.2,0.4,5.8c0,0-8.3-0.7-11.9-9.1c0,0,2.6-0.5,3.8-2.2L1122.7,61.2z"/>
	
		<ellipse transform="matrix(0.5928 -0.8053 0.8053 0.5928 408.3155 924.7661)" class="st7" cx="1118.7" cy="58.6" rx="0.9" ry="4.7"/>
</g>
<path class="st5" d="M1727.9,275.4c-20.2,1.9,6.5,37.1,58.9,39.9s95.2-1.4,61.6-23.3s-42.8-25.1-65.2-30.1
	C1761,257.1,1727.9,275.4,1727.9,275.4z"/>
<g>
	<path class="st6" d="M1731.2,244.5c0,0,2.1,21.6-9.2,33.6c0,0,38.9,25.2,77.6-11.5c0,0-11.8-6.9-14.9-27.3L1731.2,244.5z"/>
	
		<ellipse transform="matrix(0.9946 -0.1034 0.1034 0.9946 -15.584 182.9906)" class="st7" cx="1757.1" cy="241.8" rx="26.8" ry="6.8"/>
</g>
<path class="st8" d="M969.3,105.5c-0.6,1.5,0.6,4.4,8.8,5.5c11.5,1.6,17.6-3.6,14.4-6.6c-3.8-4.9-7.6-3.6-11.1-4.5
	C977.8,99,969.3,105.5,969.3,105.5z"/>
<path class="st8" d="M950.1,118.7c-1.5,2,0.9,5.2,6,7.5c7.1,3.1,12,0,10.5-3c-2.5-5.1-1.3-7-3.6-7.5L950.1,118.7z"/>
<g>
	<path class="st6" d="M1802.3,278.7c0,0-1.6,6.1,6.8,11.4c0,0-22.8,7.7-40.4-5.4c0,0,5.9-2.1,8-8.8L1802.3,278.7z"/>
	
		<ellipse transform="matrix(0.1109 -0.9938 0.9938 0.1109 1315.2064 2025.1731)" class="st7" cx="1789.5" cy="277.5" rx="2.3" ry="12.9"/>
</g>
<path class="st8" d="M292.5,121c-1,2.2,3.5,5.3,8.9,6.2c7.5,1.3,7.6,0.1,5.2-2.2c-4.3-4-5.8-2.2-8.2-3
	C296.1,121.2,292.5,121,292.5,121z"/>
<g>
	<path class="st9" d="M952.1,114.5c0,0,0.6,2.1-2,4.2c0,0,7.8,2.2,13.3-2.8c0,0-2-0.6-3-2.9L952.1,114.5z"/>
	<ellipse transform="matrix(0.982 -0.1887 0.1887 0.982 -4.2727 182.5154)" class="st10" cx="956.4" cy="113.7" rx="4.3" ry="0.8"/>
</g>
<g>
	<path class="st9" d="M971.5,100.1c0,0,1.3,2.6-2.2,5.4c0,0,11.2,2.1,18.4-4.7c0,0-2.9-0.6-4.5-3.4L971.5,100.1z"/>
	<ellipse transform="matrix(0.974 -0.2267 0.2267 0.974 3.0455 224.1261)" class="st10" cx="977.3" cy="98.8" rx="6" ry="1"/>
</g>
<g>
	<path class="st9" d="M305,121.1c0,0-1,1.8,1.5,3.9c0,0-8.8,1-14.1-4.1c0,0,2.3-0.3,3.6-2.2L305,121.1z"/>
	<ellipse transform="matrix(0.256 -0.9667 0.9667 0.256 107.7632 379.56)" class="st10" cx="300.5" cy="119.8" rx="0.7" ry="4.6"/>
</g>
<path class="st11" d="M1237.3,219.9l4.6-0.8c0,0,67.6,17,66.9,0c0-0.3,2.5-1.7,4.5-1.7c18.7,0.5,2.4-10.2-5.3-14
	c-8.8-4.3-26-9.9-24-9.7c47.4,5.2,182.4,53.3,195.3,72.7C1494,288.4,1288.3,245.1,1237.3,219.9z"/>
<g>
	<g>
		<path class="st12" d="M1292,68.2v137l0,0c0,0.1,0,0.2-0.1,0.3c0,0,0,0.1-0.1,0.1c0,0,0,0,0,0.1c-0.3,0.5-0.8,0.9-1.5,1h-29.9
			c-0.8,0-1.5-0.6-1.6-1.4h-0.1V68.2c0-17.5,8-36.2,14.3-43.2c0.8-1,1.5-1.5,2.2-1.5h0.2c0.7,0,1.4,0.5,2.2,1.5
			c1.6,1.7,3.2,4.2,4.8,7.1c3.6,6.7,7.1,16,8.6,25.8C1291.7,61.4,1292,64.9,1292,68.2z"/>
	</g>
	<path class="st13" d="M1292,205.6v1.3c0,0.1,0,0.2,0,0.3s0,0.2-0.1,0.3c0,0,0,0.1-0.1,0.1v0.1c-0.3,0.5-0.8,0.9-1.5,1h-29.9
		c-0.8,0-1.5-0.6-1.6-1.4c0-0.1-0.1-0.3-0.1-0.4v-1.3c0,0,0.2,0,0.7,0c0.1,0,0.2,0,0.3,0c0.1,0,0.2,0,0.4,0c0.1,0,0.1,0,0.2,0
		c0.2,0,0.5,0,0.8,0l0,0c2.5,0.1,7.3,0.3,14.3,0.3c1.8,0,3.4,0,4.8,0c4.6,0,7.7-0.2,9.6-0.3C1291.3,205.6,1292,205.6,1292,205.6z"/>
	<path class="st14" d="M1275.1,29.3c-0.4,2-8.9,16.6-9.6,42.9c-0.4,18.8-0.1,67.2,0,76.9c0,0.9-0.7,1.7-1.6,1.7c-0.6,0-1.1,0-1.5,0
		c-0.9,0-1.6-0.8-1.6-1.7c0-9.8-0.2-60.9,0-76.9c0.4-23.4,9-39.5,11.2-43.1C1273.3,26.9,1275.5,27.3,1275.1,29.3z"/>
	<path class="st8" d="M1292,69v1c0,0-5.3,0.9-16.6,0.9c-10.5,0-15.9-0.8-16.7-0.9v-1c0.8,0.1,6.2,0.9,16.7,0.9
		C1286.7,69.9,1292,69,1292,69z"/>
	<path class="st15" d="M1291,57.9c-2.8-1.4-9.1,1-10.4,1.2h-0.3c-0.8,0.1-1.5-0.5-1.5-1.3c0.1-5.4,0.5-10.6,1.1-15.2
		c0.4-3.2,1-7.5,1.7-9.8c0.1-0.4,0.4-0.6,0.8-0.7C1286,38.8,1289.5,48.1,1291,57.9z"/>
	<g>
		<circle class="st15" cx="1260.9" cy="67.8" r="0.6"/>
		<circle class="st15" cx="1264.8" cy="68.1" r="0.6"/>
		<circle class="st15" cx="1269.2" cy="68.2" r="0.6"/>
		<circle class="st15" cx="1273.4" cy="68.2" r="0.6"/>
		<circle class="st15" cx="1277.5" cy="68.2" r="0.6"/>
		<circle class="st15" cx="1281.6" cy="68.2" r="0.6"/>
		<circle class="st15" cx="1285.7" cy="68" r="0.6"/>
		<circle class="st15" cx="1289.8" cy="67.6" r="0.6"/>
	</g>
	<g>
		<path class="st16" d="M1292,155.8c0,0,1,5.6,2.9,9.8s18.5,40.8,18.5,40.8v13.5h-0.5c0,0-21.1-40.4-23.2-64.1
			C1289.7,155.8,1291.3,156.4,1292,155.8z"/>
		<path class="st17" d="M1289.7,155.8c0,0,2.7,8.7,5.5,14s17.8,36.8,17.8,36.8v13.3l-4.1-0.8l-19.2-13.4L1289.7,155.8L1289.7,155.8z
			"/>
	</g>
	<path class="st15" d="M1290,155.8L1290,155.8z"/>
	<path class="st18" d="M1289.7,205.7c-2.6,0.1-7.3,0.3-14.3,0.3c-11.3,0-16.6-0.4-16.6-0.4v-39.1l2.3-10.6
		C1261.1,155.8,1264.6,185.3,1289.7,205.7z"/>
	<g>
		<path class="st16" d="M1258.8,155.8c0,0-1,5.6-2.9,9.8s-18.5,40.8-18.5,40.8v13.5h0.5c0,0,21.1-40.4,23.2-64.1
			C1261.1,155.8,1259.4,156.5,1258.8,155.8z"/>
		<path class="st17" d="M1261.1,155.8v49.9l0,0l0,0l-2.3,1.6h-0.1l-16.8,11.7l-4,0.8h-0.1v-13.3c0,0,15-31.5,17.8-36.8
			c1.1-2.1,2.2-4.7,3.1-7.1C1260.1,159,1261.1,155.8,1261.1,155.8z"/>
	</g>
	<g>
		<path class="st12" d="M1289.7,205.7L1289.7,205.7L1289.7,205.7L1289.7,205.7z"/>
	</g>
</g>
</svg>
